<svg xmlns="http://www.w3.org/2000/svg" width="54" height="54" viewBox="0 0 54 54" fill="none">
  <path d="M19.3207 18.5309L25.1662 6.75887C25.3364 6.41819 25.5981 6.13164 25.922 5.93136C26.2459 5.73109 26.6192 5.625 27 5.625C27.3808 5.625 27.7541 5.73109 28.078 5.93136C28.4019 6.13164 28.6636 6.41819 28.8337 6.75887L34.6792 18.5309L47.7472 20.4299C48.1242 20.4821 48.4788 20.6393 48.7707 20.8835C49.0626 21.1277 49.2799 21.449 49.3979 21.8108C49.5159 22.1725 49.5299 22.5602 49.4381 22.9295C49.3463 23.2988 49.1526 23.6349 48.879 23.8994L39.4245 33.0569L41.6565 45.9944C41.9422 47.6549 40.1872 48.9194 38.6865 48.1364L27 42.0254L15.3112 48.1364C13.8127 48.9216 12.0577 47.6549 12.3435 45.9921L14.5755 33.0546L5.12099 23.8971C4.84871 23.6325 4.65613 23.2967 4.56516 22.9281C4.47418 22.5594 4.48845 22.1726 4.60634 21.8117C4.72424 21.4508 4.94102 21.1301 5.23207 20.8862C5.52311 20.6424 5.87673 20.485 6.25274 20.4321L19.3207 18.5309Z" stroke="url(#paint0_linear_5_351)" stroke-opacity="0.85" stroke-width="3.375" stroke-linecap="round" stroke-linejoin="round"/>
  <defs>
    <linearGradient id="paint0_linear_5_351" x1="27.002" y1="5.625" x2="27.002" y2="48.3749" gradientUnits="userSpaceOnUse">
      <stop stop-color="#990D81"/>
      <stop offset="1" stop-color="#430238"/>
    </linearGradient>
  </defs>
</svg>