<svg xmlns="http://www.w3.org/2000/svg" width="54" height="50" viewBox="0 0 54 50" fill="none">
<path d="M27 46.386C30.75 46.386 33.938 45.074 36.564 42.45C39.19 39.826 40.502 36.638 40.5 32.886C40.5 29.136 39.188 25.949 36.564 23.325C33.94 20.701 30.752 19.388 27 19.386C23.25 19.386 20.063 20.699 17.439 23.325C14.815 25.951 13.502 29.138 13.5 32.886C13.5 36.636 14.813 39.824 17.439 42.45C20.065 45.076 23.252 46.388 27 46.386ZM18.339 18.891C19.301 18.263 20.326 17.758 21.414 17.376C22.502 16.994 23.62 16.714 24.768 16.536L17.94 3H10.44L18.339 18.891ZM35.661 18.891L43.632 3H36.06L29.514 15.981L29.844 16.641C30.888 16.841 31.898 17.121 32.874 17.481C33.854 17.841 34.781 18.311 35.661 18.891ZM12.684 43.191C12.718 42.855 12.796 42.485 12.918 42.081C13.038 41.675 13.214 41.245 13.446 40.791C12.522 39.297 11.855 37.684 11.445 35.952C11.037 34.22 10.931 32.436 11.127 30.6C11.127 29.1 11.387 27.677 11.907 26.331C12.425 24.985 13.145 23.774 14.067 22.698C13.353 22.82 12.725 23.077 12.183 23.469C11.641 23.861 11.254 24.327 11.022 24.867C8.792 25.409 7.054 26.664 5.808 28.632C4.562 30.598 4.181 32.778 4.665 35.172C4.665 37.402 5.444 39.296 7.002 40.854C8.56 42.412 10.454 43.191 12.684 43.191ZM41.322 43.191C44.038 43.029 46.33 41.964 48.198 39.996C50.068 38.03 51.003 35.66 51.003 32.886C51.003 30.112 50.068 27.742 48.198 25.776C46.33 23.808 44.038 22.743 41.322 22.581C41.092 22.581 40.862 22.591 40.632 22.611C40.4 22.631 40.169 22.66 39.939 22.698C41.059 24.11 41.933 25.682 42.561 27.414C43.189 29.146 43.503 30.97 43.503 32.886C43.503 34.802 43.189 36.626 42.561 38.358C41.931 40.09 41.057 41.662 39.939 43.074C40.169 43.114 40.399 43.143 40.629 43.161C40.861 43.181 41.092 43.191 41.322 43.191ZM27 49.386C25.076 49.386 23.26 49.089 21.552 48.495C19.842 47.901 18.289 47.046 16.893 45.93C16.365 46.108 15.809 46.228 15.225 46.29C14.641 46.354 14.041 46.386 13.425 46.386C9.721 46.386 6.558 45.074 3.936 42.45C1.312 39.828 0 36.665 0 32.961C0 29.303 1.277 26.174 3.831 23.574C6.385 20.974 9.479 19.634 13.113 19.554C13.537 19.554 13.941 19.583 14.325 19.641C14.709 19.697 15.094 19.764 15.48 19.842L5.538 0H19.848L27 14.31L34.155 0H48.462L38.652 19.635C39 19.557 39.356 19.499 39.72 19.461C40.086 19.421 40.461 19.401 40.845 19.401C44.519 19.495 47.63 20.842 50.178 23.442C52.726 26.042 54 29.19 54 32.886C54 36.64 52.688 39.828 50.064 42.45C47.442 45.074 44.254 46.386 40.5 46.386C39.896 46.386 39.309 46.354 38.739 46.29C38.169 46.226 37.619 46.106 37.089 45.93C35.693 47.008 34.143 47.853 32.439 48.465C30.737 49.079 28.924 49.386 27 49.386ZM22.314 39.75L24.069 33.966L19.386 30.624H25.17L27 24.522L28.83 30.624H34.614L29.931 33.966L31.686 39.75L27 36.186L22.314 39.75Z" fill="url(#paint0_linear_5_371)" fill-opacity="0.85"/>
<defs>
<linearGradient id="paint0_linear_5_371" x1="27" y1="0" x2="27" y2="49.386" gradientUnits="userSpaceOnUse">
<stop stop-color="#990D81"/>
<stop offset="1" stop-color="#430238"/>
</linearGradient>
</defs>
</svg>