<svg width="31" height="31" viewBox="0 0 31 31" fill="none" xmlns="http://www.w3.org/2000/svg">
<rect width="31" height="31" fill="#1E1E1E"/>
<g id="MacBook Air - 1" clip-path="url(#clip0_0_1)">
<rect width="1280" height="3996" transform="translate(-171 -3866)" fill="white"/>
<g id="Group 1000010956">
<rect id="Rectangle 12" x="-171" y="-199" width="1280" height="329" fill="#0A0323"/>
<g id="Frame 79">
<g id="Frame 34">
<g id="Frame 1000008553">
<g id="Frame 1000008552">
<g id="Frame 1000008465">
<g id="ri:instagram-fill">
<path id="Vector" d="M16.5539 3.33887C17.9457 3.34258 18.6521 3.35 19.2621 3.36732L19.5021 3.37598C19.7792 3.38588 20.0526 3.39825 20.3829 3.4131C21.6993 3.47496 22.5975 3.6828 23.3856 3.98839C24.2021 4.30263 24.89 4.72822 25.5779 5.41485C26.207 6.03332 26.6937 6.78143 27.0043 7.60714C27.3099 8.39522 27.5178 9.29341 27.5796 10.611C27.5945 10.9401 27.6068 11.2135 27.6167 11.4919L27.6242 11.7319C27.6427 12.3406 27.6501 13.047 27.6526 14.4388L27.6538 15.3618V16.9825C27.6569 17.8849 27.6474 18.7873 27.6254 19.6894L27.618 19.9294C27.6081 20.2078 27.5957 20.4812 27.5809 20.8103C27.519 22.1279 27.3087 23.0249 27.0043 23.8142C26.6946 24.6403 26.2077 25.3886 25.5779 26.0065C24.9592 26.6354 24.2112 27.1221 23.3856 27.4329C22.5975 27.7385 21.6993 27.9464 20.3829 28.0082C20.0894 28.0221 19.7958 28.0344 19.5021 28.0453L19.2621 28.0528C18.6521 28.0701 17.9457 28.0787 16.5539 28.0812L15.6309 28.0825H14.0115C13.1087 28.0856 12.2058 28.0761 11.3033 28.054L11.0633 28.0466C10.7696 28.0355 10.4759 28.0227 10.1824 28.0082C8.86604 27.9464 7.96785 27.7385 7.17853 27.4329C6.35292 27.1229 5.6051 26.636 4.98748 26.0065C4.35782 25.3882 3.87059 24.6401 3.55978 23.8142C3.2542 23.0261 3.04635 22.1279 2.98449 20.8103C2.97071 20.5168 2.95833 20.2231 2.94738 19.9294L2.94119 19.6894C2.91839 18.7873 2.90808 17.8849 2.91026 16.9825V14.4388C2.90681 13.5364 2.91588 12.634 2.93748 11.7319L2.94614 11.4919C2.95604 11.2135 2.96841 10.9401 2.98325 10.611C3.04511 9.29341 3.25296 8.39646 3.55854 7.60714C3.86921 6.78058 4.35741 6.03224 4.98872 5.41485C5.60619 4.78572 6.35351 4.2989 7.17853 3.98839C7.96785 3.6828 8.8648 3.47496 10.1824 3.4131C10.5115 3.39825 10.7861 3.38588 11.0633 3.37598L11.3033 3.36856C12.2054 3.34658 13.1078 3.33709 14.0102 3.3401L16.5539 3.33887ZM15.2821 9.52477C13.6415 9.52477 12.068 10.1765 10.908 11.3366C9.74788 12.4967 9.09616 14.0701 9.09616 15.7107C9.09616 17.3513 9.74788 18.9247 10.908 20.0848C12.068 21.2448 13.6415 21.8966 15.2821 21.8966C16.9227 21.8966 18.4961 21.2448 19.6561 20.0848C20.8162 18.9247 21.468 17.3513 21.468 15.7107C21.468 14.0701 20.8162 12.4967 19.6561 11.3366C18.4961 10.1765 16.9227 9.52477 15.2821 9.52477ZM15.2821 11.9991C15.7695 11.999 16.2521 12.095 16.7024 12.2814C17.1528 12.4679 17.562 12.7412 17.9067 13.0858C18.2514 13.4304 18.5249 13.8395 18.7114 14.2897C18.898 14.74 18.9941 15.2226 18.9942 15.71C18.9943 16.1975 18.8984 16.6801 18.7119 17.1304C18.5255 17.5808 18.2522 17.99 17.9076 18.3347C17.563 18.6794 17.1539 18.9528 16.7036 19.1394C16.2533 19.326 15.7707 19.4221 15.2833 19.4222C14.2989 19.4222 13.3549 19.0312 12.6588 18.3351C11.9628 17.6391 11.5718 16.695 11.5718 15.7107C11.5718 14.7263 11.9628 13.7823 12.6588 13.0862C13.3549 12.3902 14.2989 11.9991 15.2833 11.9991M21.7785 7.669C21.3683 7.669 20.975 7.83193 20.685 8.12195C20.3949 8.41197 20.232 8.80532 20.232 9.21547C20.232 9.62562 20.3949 10.019 20.685 10.309C20.975 10.599 21.3683 10.7619 21.7785 10.7619C22.1886 10.7619 22.582 10.599 22.872 10.309C23.162 10.019 23.325 9.62562 23.325 9.21547C23.325 8.80532 23.162 8.41197 22.872 8.12195C22.582 7.83193 22.1886 7.669 21.7785 7.669Z" fill="white"/>
</g>
</g>
</g>
</g>
</g>
</g>
</g>
</g>
<defs>
<clipPath id="clip0_0_1">
<rect width="1280" height="3996" fill="white" transform="translate(-171 -3866)"/>
</clipPath>
</defs>
</svg>
