<svg width="30" height="31" viewBox="0 0 30 31" fill="none" xmlns="http://www.w3.org/2000/svg">
<path d="M23.5064 4.57617C24.1627 4.57617 24.792 4.83686 25.2561 5.30089C25.7201 5.76493 25.9808 6.39429 25.9808 7.05053V24.371C25.9808 25.0273 25.7201 25.6566 25.2561 26.1207C24.792 26.5847 24.1627 26.8454 23.5064 26.8454H6.18591C5.52967 26.8454 4.9003 26.5847 4.43627 26.1207C3.97224 25.6566 3.71155 25.0273 3.71155 24.371V7.05053C3.71155 6.39429 3.97224 5.76493 4.43627 5.30089C4.9003 4.83686 5.52967 4.57617 6.18591 4.57617H23.5064ZM22.8878 23.7525V17.1954C22.8878 16.1257 22.4629 15.0999 21.7065 14.3435C20.9502 13.5871 19.9243 13.1622 18.8546 13.1622C17.803 13.1622 16.5782 13.8055 15.9844 14.7705V13.3973H12.5326V23.7525H15.9844V17.6532C15.9844 16.7005 16.7514 15.9211 17.704 15.9211C18.1634 15.9211 18.604 16.1036 18.9288 16.4284C19.2536 16.7532 19.4361 17.1938 19.4361 17.6532V23.7525H22.8878ZM8.5118 11.4549C9.06305 11.4549 9.59171 11.2359 9.9815 10.8461C10.3713 10.4563 10.5903 9.92767 10.5903 9.37643C10.5903 8.22585 9.66238 7.28559 8.5118 7.28559C7.95728 7.28559 7.42547 7.50588 7.03336 7.89799C6.64125 8.29009 6.42097 8.8219 6.42097 9.37643C6.42097 10.527 7.36123 11.4549 8.5118 11.4549ZM10.2315 23.7525V13.3973H6.8045V23.7525H10.2315Z" fill="white"/>
</svg>
